<svg width="170" height="70" viewBox="0 0 170 70" fill="none" xmlns="http://www.w3.org/2000/svg">
<g id="logo 1">
<path id="Vector" d="M107.777 28.9362L108.696 26.4539L109.614 28.9362H107.777ZM109.331 24.9645H107.919L105.376 31.5603H106.789L107.354 30.0709H109.967L110.532 31.5603H111.944L109.331 24.9645ZM103.469 31.5603V26.0993H105.447V24.9645H100.22V26.0993H102.198V31.5603H103.469ZM94.782 26.5248C95.1351 26.1702 95.5589 25.9574 96.1239 25.9574C96.6889 25.9574 97.1127 26.1702 97.4658 26.5248C97.8189 26.8794 97.9602 27.4468 97.9602 28.2269C97.9602 29.0071 97.8189 29.5745 97.4658 29.9291C97.1127 30.2837 96.6889 30.4965 96.1945 30.4965C95.7001 30.4965 95.2057 30.2837 94.8526 29.9291C94.4994 29.5745 94.3582 29.0071 94.3582 28.2269C94.2169 27.4468 94.4288 26.8794 94.782 26.5248ZM93.7225 30.7801C94.2876 31.3475 95.0645 31.7021 96.0532 31.7021C97.042 31.7021 97.8189 31.4184 98.384 30.7801C98.949 30.2128 99.2315 29.3617 99.2315 28.2979C99.2315 27.234 98.949 26.383 98.384 25.8156C97.8189 25.1773 97.042 24.8936 96.0532 24.8936C95.4882 24.8936 95.0645 24.9645 94.6407 25.1773C94.3582 25.3191 94.0757 25.5319 93.7932 25.7447C93.5107 26.0284 93.2988 26.3121 93.1575 26.6667C92.9456 27.0922 92.875 27.6596 92.875 28.3688C92.875 29.2908 93.1575 30.1418 93.7225 30.7801ZM87.5073 28.6525H88.8493C89.3437 28.6525 89.7674 28.7234 89.9793 28.8652C90.1912 29.0071 90.3324 29.2199 90.3324 29.5035C90.3324 29.7163 90.2618 29.8582 90.1206 30C89.9793 30.1418 89.838 30.2128 89.6968 30.2837C89.5555 30.3546 89.273 30.3546 88.8493 30.3546H87.578L87.5073 28.6525ZM86.236 31.5603H89.3436C89.9087 31.5603 90.3324 31.4894 90.6149 31.4184C90.8975 31.3475 91.18 31.0638 91.3918 30.7801C91.6037 30.4965 91.745 30.0709 91.745 29.6454C91.745 29.2199 91.6037 28.8652 91.3918 28.5106C91.18 28.156 90.8974 27.9433 90.5443 27.8723C90.1912 27.7305 89.838 27.6596 89.3436 27.6596H87.578V26.0993H91.18V24.9645H86.236V31.5603ZM80.8684 28.9362L81.7865 26.4539L82.7047 28.9362H80.8684ZM82.4928 24.9645H81.0803L78.5377 31.5603H79.9502L80.5152 30.0709H83.1284L83.6935 31.5603H85.106L82.4928 24.9645ZM75.5007 26.0284C75.9951 26.0284 76.2776 26.0284 76.4895 26.0993C76.7014 26.1702 76.9132 26.2411 77.0545 26.383C77.1957 26.5248 77.2664 26.7376 77.2664 26.9504C77.2664 27.1631 77.1957 27.305 77.1251 27.4468C77.0545 27.5887 76.9132 27.7305 76.7014 27.8014C76.4895 27.8723 76.207 27.8723 75.6419 27.8723H74.9357V26.0284H75.5007ZM74.865 31.5603V29.078H75.7126C76.3482 29.078 76.772 29.078 77.0545 29.0071C77.2664 28.9362 77.5489 28.8652 77.7608 28.7234C77.9726 28.5816 78.1845 28.3688 78.3258 28.0851C78.467 27.8014 78.5377 27.4468 78.5377 27.0922C78.5377 26.5957 78.3964 26.1702 78.1845 25.8156C77.902 25.461 77.6195 25.2482 77.2664 25.1773C77.0545 25.1064 76.4895 25.1064 75.7126 25.1064H73.5938V31.7021H74.865V31.5603Z" fill="white"/>
<path id="Vector_2" d="M158.911 15.6737H157.922C157.357 15.6737 157.004 15.6737 156.863 15.6028C156.651 15.6028 156.51 15.461 156.439 15.3191C156.298 15.1773 156.298 14.9645 156.298 14.7517C156.298 14.539 156.369 14.3262 156.51 14.1844C156.651 14.0425 156.792 13.9716 156.934 13.9716C157.075 13.9716 157.428 13.9716 157.993 13.9716H159.052V15.6737H158.911ZM160.253 19.5035V12.9078H157.428C156.792 12.9078 156.298 12.9787 155.945 13.0496C155.592 13.1205 155.38 13.3333 155.168 13.6879C154.956 13.9716 154.885 14.3262 154.885 14.7517C154.885 15.2482 155.027 15.6028 155.309 15.9574C155.592 16.312 156.016 16.5248 156.651 16.5957C156.369 16.7376 156.157 16.9503 155.945 17.1631C155.733 17.3759 155.521 17.7305 155.168 18.2269L154.391 19.5035H155.945L156.934 18.0851C157.357 17.4468 157.64 17.0922 157.781 16.9503C157.922 16.8085 158.276 16.7376 158.699 16.7376H158.982V19.5035H160.253ZM149.659 16.8794L150.577 14.3971L151.495 16.8794H149.659ZM151.283 12.9078H149.871L147.328 19.5035H148.741L149.306 18.0142H151.919L152.484 19.5035H153.897L151.283 12.9078ZM142.314 19.5035V16.5957H144.927V19.5035H146.269V12.9078H144.927V15.5319H142.314V12.9078H140.972V19.5035H142.314ZM135.322 19.5035V16.5957H137.935V19.5035H139.277V12.9078H137.935V15.5319H135.322V12.9078H133.98V19.5035H135.322ZM128.047 14.4681C128.4 14.1134 128.824 13.9007 129.389 13.9007C129.954 13.9007 130.378 14.1134 130.731 14.4681C131.084 14.8227 131.225 15.39 131.225 16.1702C131.225 16.9503 131.084 17.5177 130.731 17.8723C130.378 18.2269 129.954 18.4397 129.46 18.4397C128.965 18.4397 128.471 18.2269 128.118 17.8723C127.765 17.5177 127.623 16.9503 127.623 16.1702C127.553 15.39 127.765 14.8227 128.047 14.4681ZM127.058 18.7234C127.623 19.2908 128.4 19.6454 129.389 19.6454C130.378 19.6454 131.155 19.3617 131.72 18.7234C132.285 18.156 132.567 17.3049 132.567 16.2411C132.567 15.1773 132.285 14.3262 131.72 13.7588C131.155 13.1205 130.378 12.8369 129.389 12.8369C128.824 12.8369 128.4 12.9078 127.976 13.1205C127.694 13.2624 127.411 13.4752 127.129 13.6879C126.846 13.9716 126.635 14.2553 126.493 14.6099C126.281 15.0354 126.211 15.6028 126.211 16.312C126.211 17.234 126.493 18.0851 127.058 18.7234ZM119.501 19.5035H120.843L123.527 15.1773V19.5035H124.798V12.9078H123.456L120.772 17.3049V12.9078H119.501V19.5035ZM112.438 19.5035H117.1V20.922H118.23V18.3688H117.665V12.9078H116.323V18.3688H113.78V12.9078H112.438V19.5035ZM106.506 19.5035H107.848V16.5957C108.06 16.5957 108.271 16.6666 108.342 16.7376C108.483 16.8085 108.625 17.0213 108.766 17.3759C108.836 17.5886 108.907 17.6595 108.907 17.6595C108.978 17.7305 108.978 17.8014 108.978 17.8014L109.755 19.5035H111.308L110.39 17.6595C110.178 17.1631 109.966 16.8085 109.755 16.5957C109.543 16.312 109.331 16.1702 109.048 16.0993C109.26 15.9574 109.472 15.8156 109.543 15.6737C109.613 15.5319 109.755 15.3191 109.825 15.1064C109.966 14.6808 110.108 14.3971 110.178 14.2553C110.249 14.1134 110.39 14.0425 110.461 13.9716C110.602 13.9007 110.814 13.9007 111.026 13.9007H111.238V12.9078C111.167 12.9078 111.097 12.9078 111.026 12.9078C110.39 12.9078 109.966 12.9787 109.684 13.1915C109.401 13.3333 109.119 13.8298 108.836 14.539C108.625 15.1064 108.483 15.461 108.342 15.5319C108.271 15.6737 108.06 15.7447 107.706 15.7447V12.9078H106.364V19.5035H106.506ZM104.952 19.5035V18.3688H101.279V16.5957H104.599V15.461H101.279V13.9716H104.811V12.8369H99.9374V19.4326H104.952V19.5035ZM95.4173 13.9716C95.9116 13.9716 96.1942 13.9716 96.406 14.0425C96.6179 14.1134 96.8298 14.1844 96.9711 14.3262C97.1123 14.4681 97.1829 14.6808 97.1829 14.8936C97.1829 15.1064 97.1123 15.2482 97.0417 15.39C96.971 15.5319 96.8298 15.6737 96.6179 15.7447C96.406 15.8156 96.1235 15.8156 95.5585 15.8156H94.8522V13.9716H95.4173ZM94.7816 19.5035V17.0213H95.6291C96.2648 17.0213 96.6885 17.0213 96.9711 16.9503C97.1829 16.8794 97.4654 16.8085 97.6773 16.6666C97.8892 16.5248 98.1011 16.312 98.2423 16.0283C98.3836 15.7447 98.4542 15.39 98.4542 15.0354C98.4542 14.539 98.313 14.1134 98.1011 13.7588C97.8186 13.4042 97.5361 13.1915 97.1829 13.1205C96.9711 13.0496 96.406 13.0496 95.6291 13.0496H93.5103V19.6454H94.7816V19.5035ZM88.9195 13.9716C89.4139 13.9716 89.6964 13.9716 89.9083 14.0425C90.1202 14.1134 90.3321 14.1844 90.4733 14.3262C90.6146 14.4681 90.6852 14.6808 90.6852 14.8936C90.6852 15.1064 90.6146 15.2482 90.544 15.39C90.4733 15.5319 90.3321 15.6737 90.1202 15.7447C89.9083 15.8156 89.6258 15.8156 89.0608 15.8156H88.3545V13.9716H88.9195ZM88.2839 19.5035V17.0213H89.1314C89.6964 17.0213 90.1908 17.0213 90.4733 16.9503C90.6852 16.8794 90.9677 16.8085 91.1796 16.6666C91.3915 16.5248 91.6034 16.312 91.7446 16.0283C91.8859 15.7447 91.9565 15.39 91.9565 15.0354C91.9565 14.539 91.8153 14.1134 91.6034 13.7588C91.3209 13.4042 91.0384 13.1915 90.6852 13.1205C90.4733 13.0496 89.9083 13.0496 89.1314 13.0496H87.0126V19.6454H88.2839V19.5035ZM81.0799 14.4681C81.433 14.1134 81.8568 13.9007 82.4218 13.9007C82.9868 13.9007 83.4106 14.1134 83.7637 14.4681C84.1169 14.8227 84.2581 15.39 84.2581 16.1702C84.2581 16.9503 84.1169 17.5177 83.7637 17.8723C83.4106 18.2269 82.9868 18.4397 82.4924 18.4397C81.9274 18.4397 81.5037 18.2269 81.1505 17.8723C80.7974 17.5177 80.6561 16.9503 80.6561 16.1702C80.5855 15.39 80.7268 14.8227 81.0799 14.4681ZM80.0911 18.7234C80.6561 19.2908 81.433 19.6454 82.4218 19.6454C83.4106 19.6454 84.1875 19.3617 84.7525 18.7234C85.3175 18.0851 85.6 17.3049 85.6 16.2411C85.6 15.1773 85.3175 14.3262 84.7525 13.7588C84.1875 13.1205 83.4106 12.8369 82.4218 12.8369C81.8568 12.8369 81.433 12.9078 81.0093 13.1205C80.7268 13.2624 80.4443 13.4752 80.1617 13.6879C79.8792 13.9716 79.6674 14.2553 79.5261 14.6099C79.3142 15.0354 79.2436 15.6028 79.2436 16.312C79.173 17.234 79.5261 18.0851 80.0911 18.7234ZM73.5228 19.5035H74.8647V16.5957C75.0766 16.5957 75.2885 16.6666 75.3591 16.7376C75.5003 16.8085 75.6416 17.0213 75.7829 17.3759C75.8535 17.5886 75.9241 17.6595 75.9241 17.6595C75.9947 17.7305 75.9947 17.8014 75.9947 17.8014L76.7716 19.5035H78.3254L77.4073 17.6595C77.1954 17.1631 76.9835 16.8085 76.7716 16.5957C76.5597 16.383 76.3479 16.1702 76.0654 16.0993C76.2772 15.9574 76.4891 15.8156 76.5598 15.6737C76.6304 15.5319 76.7716 15.3191 76.8423 15.1064C76.9835 14.6808 77.1248 14.3971 77.1954 14.2553C77.266 14.1134 77.4073 14.0425 77.4779 13.9716C77.6192 13.9007 77.831 13.9007 78.0429 13.9007H78.2548V12.9078C78.1842 12.9078 78.1136 12.9078 78.0429 12.9078C77.4073 12.9078 76.9835 12.9787 76.701 13.1915C76.4185 13.3333 76.136 13.8298 75.8535 14.539C75.6416 15.1064 75.5003 15.461 75.3591 15.5319C75.2885 15.6737 75.0766 15.7447 74.7941 15.7447V12.9078H73.4521V19.5035H73.5228Z" fill="white"/>
<path id="Vector_3" d="M114.557 6.17022H113.286V7.44682H114.557V6.17022ZM106.506 7.44682V2.19859L107.777 7.3759H109.048L110.32 2.19859V7.3759H111.52V0.851073H109.543L108.342 5.31916L107.141 0.851073H105.164V7.44682H106.506ZM101.209 1.77306C101.562 1.77306 101.774 1.84398 101.985 1.98582C102.127 2.12767 102.268 2.34043 102.268 2.62412C102.268 2.90781 102.127 3.1915 101.915 3.33334C101.703 3.54611 101.42 3.61703 100.997 3.61703H100.855V4.60994H101.138C101.562 4.60994 101.915 4.68086 102.127 4.8227C102.339 4.96455 102.48 5.17731 102.48 5.461C102.48 5.67377 102.409 5.88653 102.197 6.0993C101.985 6.31207 101.703 6.38299 101.279 6.38299C100.997 6.38299 100.714 6.31207 100.502 6.24114C100.29 6.0993 100.149 5.88653 100.008 5.461L98.8073 5.88653C99.0191 6.52483 99.3017 6.95036 99.7254 7.16313C100.149 7.3759 100.644 7.51774 101.35 7.51774C102.197 7.51774 102.833 7.30497 103.257 6.95036C103.681 6.59575 103.892 6.0993 103.892 5.53192C103.892 5.10639 103.751 4.8227 103.539 4.53902C103.327 4.25533 102.974 4.04256 102.551 3.90072C102.904 3.68795 103.186 3.47519 103.327 3.26242C103.539 2.97873 103.61 2.69504 103.61 2.41136C103.61 1.98582 103.398 1.56029 103.045 1.20568C102.621 0.851073 102.056 0.709229 101.279 0.709229C100.008 0.709229 99.1604 1.2766 98.8779 2.34043L100.149 2.62412C100.29 2.05675 100.644 1.77306 101.209 1.77306ZM92.2389 7.44682H93.5808L96.2647 3.12058V7.44682H97.536V0.851073H96.1941L93.5102 5.24824V0.851073H92.2389V7.44682ZM89.0607 7.44682V1.9149H91.0383V0.851073H85.8118V1.98582H87.7894V7.44682H89.0607ZM81.9273 5.53192C81.7861 5.88653 81.6448 6.17022 81.5742 6.24114C81.4329 6.38299 81.2211 6.38299 80.9385 6.38299C80.7973 6.38299 80.5854 6.38299 80.4442 6.38299V7.3759C80.656 7.44682 80.9385 7.44682 81.3623 7.44682C81.7861 7.44682 82.0686 7.30497 82.3511 7.02129C82.6336 6.7376 82.8455 6.31207 83.0574 5.81561L85.2468 0.780151H83.8343L82.4924 4.25533L80.9385 0.851073H79.4554L81.9273 5.53192ZM75.2177 4.8227L76.1359 2.34043L77.054 4.8227H75.2177ZM76.7715 0.851073H75.359L72.8164 7.44682H74.229L74.794 5.95746H77.4072L77.9722 7.44682H79.3848L76.7715 0.851073Z" fill="white"/>
<path id="Vector_4" d="M164.421 65.6029L165.198 63.4043L166.045 65.6029H164.421ZM165.904 61.9858H164.633L162.302 68.0142H163.573L164.068 66.6667H166.469L166.963 68.0142H168.305L165.904 61.9858ZM157.499 68.0142H158.7V65.3901C158.912 65.3901 159.053 65.461 159.124 65.5319C159.194 65.6029 159.336 65.8156 159.477 66.0993C159.548 66.2412 159.618 66.383 159.618 66.383C159.689 66.4539 159.689 66.4539 159.689 66.5248L160.395 68.0851H161.808L160.96 66.4539C160.748 66.0284 160.536 65.6738 160.395 65.461C160.254 65.2483 159.971 65.1064 159.759 64.9646C159.971 64.8227 160.113 64.6809 160.183 64.539C160.254 64.3972 160.324 64.2553 160.395 64.0426C160.536 63.688 160.607 63.4043 160.678 63.2624C160.748 63.1206 160.819 63.0497 160.96 62.9788C161.101 62.9078 161.243 62.9078 161.525 62.9078H161.666V61.9858C161.596 61.9858 161.525 61.9858 161.525 61.9858C160.96 61.9858 160.536 62.0568 160.324 62.1986C160.042 62.3404 159.83 62.766 159.548 63.4043C159.336 63.9007 159.194 64.2553 159.124 64.3263C159.053 64.4681 158.841 64.539 158.559 64.539V61.9858H157.499V68.0142ZM151.143 68.0142H152.344L154.745 64.1135V68.0142H155.875V61.9858H154.674L152.273 65.9575V61.9858H151.143V68.0142ZM148.247 68.0142V63.0497H150.013V62.0568H145.281V63.0497H147.046V68.0142H148.247ZM140.125 68.0142H141.326V65.3901C141.538 65.3901 141.679 65.461 141.749 65.5319C141.82 65.6029 141.961 65.8156 142.103 66.0993C142.173 66.2412 142.244 66.383 142.244 66.383C142.314 66.4539 142.314 66.4539 142.314 66.5248L143.021 68.0851H144.433L143.586 66.4539C143.374 66.0284 143.162 65.6738 143.021 65.461C142.879 65.2483 142.597 65.1064 142.385 64.9646C142.597 64.8227 142.738 64.6809 142.809 64.539C142.879 64.3972 142.95 64.2553 143.021 64.0426C143.162 63.688 143.233 63.4043 143.303 63.2624C143.374 63.1206 143.444 63.0497 143.586 62.9788C143.727 62.9078 143.868 62.9078 144.151 62.9078H144.292V61.9858C144.221 61.9858 144.151 61.9858 144.151 61.9858C143.586 61.9858 143.162 62.0568 142.95 62.1986C142.668 62.3404 142.456 62.766 142.173 63.4043C141.961 63.9007 141.82 64.2553 141.749 64.3263C141.679 64.4681 141.467 64.539 141.184 64.539V61.9858H139.984V68.0142H140.125ZM135.252 65.6029L136.029 63.4043L136.876 65.6029H135.252ZM136.735 61.9858H135.464L133.133 68.0142H134.404L134.899 66.6667H137.3L137.794 68.0142H139.136L136.735 61.9858ZM130.378 62.9788C130.802 62.9788 131.085 62.9787 131.226 63.0497C131.438 63.0497 131.579 63.1915 131.72 63.3334C131.862 63.4752 131.932 63.688 131.932 63.9007C131.932 64.1135 131.862 64.2553 131.791 64.3972C131.72 64.539 131.579 64.61 131.438 64.6809C131.297 64.7518 130.943 64.7518 130.52 64.7518H129.884V63.0497L130.378 62.9788ZM129.813 68.0142V65.7447H130.59C131.155 65.7447 131.579 65.7447 131.862 65.6738C132.073 65.6029 132.285 65.5319 132.497 65.3901C132.709 65.2482 132.85 65.0355 132.992 64.8227C133.133 64.539 133.204 64.2553 133.204 63.9007C133.204 63.4043 133.062 63.0497 132.85 62.766C132.639 62.4823 132.356 62.2695 132.003 62.1986C131.791 62.1277 131.297 62.1277 130.59 62.1277H128.542V68.1561H129.813V68.0142ZM122.256 68.0142H123.457V63.0497H125.788V68.0142H126.988V61.9858H122.256V68.0142ZM113.287 68.0142H114.487L116.889 64.1135V68.0142H118.019V61.9858H116.818L114.417 65.9575V61.9858H113.287V68.0142ZM107.848 64.539H106.93C106.436 64.539 106.083 64.539 105.941 64.4681C105.8 64.4681 105.659 64.3263 105.518 64.2553C105.447 64.1135 105.376 63.9717 105.376 63.7589C105.376 63.5461 105.447 63.4043 105.518 63.2624C105.659 63.1206 105.73 63.0497 105.941 63.0497C106.083 63.0497 106.436 63.0497 106.86 63.0497H107.778L107.848 64.539ZM109.049 68.0142V61.9858H106.506C105.941 61.9858 105.447 62.0568 105.164 62.1277C104.882 62.1986 104.599 62.4114 104.458 62.6951C104.246 62.9787 104.176 63.3334 104.176 63.688C104.176 64.1135 104.317 64.4681 104.529 64.7518C104.741 65.0355 105.164 65.2483 105.729 65.3192C105.447 65.461 105.235 65.6029 105.094 65.8156C104.953 66.0284 104.67 66.3121 104.388 66.8085L103.681 67.9433H105.094L105.941 66.6667C106.295 66.0993 106.577 65.7447 106.718 65.6738C106.86 65.5319 107.142 65.5319 107.495 65.5319H107.707V68.0142H109.049ZM97.9605 68.0142H99.1612L101.562 64.1135V68.0142H102.693V61.9858H101.492L99.0905 65.9575V61.9858H97.9605V68.0142ZM93.8641 62.9788C94.2879 62.9788 94.5704 62.9787 94.7116 63.0497C94.9235 63.0497 95.0648 63.1915 95.206 63.3334C95.3473 63.4752 95.4179 63.688 95.4179 63.9007C95.4179 64.1135 95.3473 64.2553 95.2767 64.3972C95.206 64.539 95.0648 64.61 94.9235 64.6809C94.7823 64.7518 94.4291 64.7518 94.0054 64.7518H93.3697V63.0497L93.8641 62.9788ZM93.2991 68.0142V65.7447H94.076C94.641 65.7447 95.0648 65.7447 95.3473 65.6738C95.5592 65.6029 95.771 65.5319 95.9829 65.3901C96.1948 65.2482 96.3361 65.0355 96.4773 64.8227C96.6186 64.539 96.6892 64.2553 96.6892 63.9007C96.6892 63.4043 96.5479 63.0497 96.3361 62.766C96.1242 62.4823 95.8417 62.2695 95.4885 62.1986C95.2767 62.1277 94.7823 62.1277 94.076 62.1277H92.1691V68.1561H93.2991V68.0142ZM86.7308 63.4043C87.0133 63.0497 87.437 62.9078 87.9314 62.9078C88.4258 62.9078 88.8496 63.0497 89.1321 63.4043C89.4146 63.7589 89.5558 64.2553 89.5558 64.9646C89.5558 65.6738 89.4146 66.1702 89.0615 66.5248C88.7789 66.8795 88.3552 67.0213 87.8608 67.0213C87.3664 67.0213 87.0133 66.8795 86.6601 66.5248C86.3776 66.1702 86.1657 65.6738 86.1657 64.9646C86.2364 64.3263 86.3776 63.7589 86.7308 63.4043ZM85.8126 67.2341C86.307 67.8014 87.0133 68.0851 87.9314 68.0851C88.7789 68.0851 89.4852 67.8014 90.0502 67.2341C90.5446 66.6667 90.8271 65.9575 90.8271 64.9646C90.8271 63.9717 90.5446 63.1915 90.0502 62.6951C89.5558 62.1277 88.8496 61.844 87.9314 61.844C87.437 61.844 87.0133 61.9149 86.6601 62.0568C86.3776 62.1986 86.0951 62.3405 85.8832 62.6241C85.6713 62.8369 85.4595 63.1206 85.3182 63.4752C85.1063 63.9007 85.0357 64.3972 85.0357 65.0355C84.9651 65.9575 85.2476 66.7376 85.8126 67.2341ZM83.9057 68.0142V67.0213H80.5862V65.3901H83.5525V64.3972H80.5862V63.0497H83.835V62.0568H79.3855V68.0851L83.9057 68.0142ZM76.4898 68.0142V63.0497H78.2555V62.0568H73.5234V63.0497H75.2891V68.0142H76.4898Z" fill="white"/>
<path id="Vector_5" d="M107 48.2269L108.836 43.1206L110.743 48.2269H107ZM110.32 39.8582H107.353L101.985 53.617H104.952L106.082 50.4964H111.591L112.791 53.617H115.828L110.32 39.8582ZM93.8634 47.6596C95.1346 47.6596 95.9115 47.7305 96.3353 47.8723C96.6884 48.0142 96.971 48.2269 97.1828 48.5106C97.3947 48.7943 97.4654 49.1489 97.4654 49.5745C97.4654 50.0709 97.3241 50.4255 97.1122 50.7801C96.8297 51.0638 96.5472 51.2766 96.1234 51.3475C95.8409 51.4184 95.2053 51.4184 94.2165 51.4184H91.6739V47.7305H93.8634V47.6596ZM93.2277 42.1277C94.499 42.1277 95.3465 42.1277 95.629 42.1986C96.1234 42.2695 96.4059 42.4113 96.6884 42.695C96.9003 42.9787 97.0416 43.3333 97.0416 43.7589C97.0416 44.1844 96.9003 44.539 96.6178 44.8227C96.3353 45.1064 95.9822 45.2482 95.4878 45.3191C95.2053 45.3191 94.5696 45.3901 93.4396 45.3901H91.6033V42.1986L93.2277 42.1277ZM88.8488 53.617H93.5102C95.2759 53.617 96.4059 53.5461 96.8297 53.5461C97.536 53.4752 98.1716 53.2624 98.666 52.9078C99.1604 52.5532 99.5842 52.0567 99.8667 51.4894C100.149 50.922 100.29 50.2837 100.29 49.6454C100.29 48.8652 100.079 48.156 99.5842 47.5886C99.1604 47.0213 98.5248 46.5957 97.6772 46.3121C98.2423 46.0284 98.7366 45.6028 99.0898 45.1064C99.4429 44.539 99.5842 43.9716 99.5842 43.3333C99.5842 42.766 99.4429 42.1986 99.1604 41.7021C98.8779 41.2057 98.5248 40.8511 98.101 40.5674C97.6772 40.2837 97.1828 40.0709 96.6884 40C96.1234 39.9291 95.3465 39.8582 94.2871 39.8582H88.7782L88.8488 53.617ZM77.7603 48.2269L79.5966 43.1206L81.5036 48.2269H77.7603ZM81.1504 39.8582H78.1841L72.8164 53.617H75.7828L76.9128 50.4964H82.4217L83.6224 53.617H86.6594L81.1504 39.8582Z" fill="#55AC30"/>
<path id="Vector_6" d="M0.706055 47.5887V52.4823C5.43809 54.1135 12.0771 59.3617 16.8797 59.078C19.4223 56.1702 16.8797 53.7589 17.8685 48.8653C18.4335 46.0284 18.7867 39.1489 19.8461 37.6596C21.4705 37.5887 20.4817 37.3759 20.8348 38.2979C22.3886 38.8653 20.7642 42.4114 21.8943 44.6099C23.8012 41.9149 23.3774 36.1702 26.9088 36.2411C27.5444 39.4326 25.6375 40.7092 25.6375 44.0426C26.7675 41.7731 28.1095 36.5958 30.7933 36.3121C31.5702 39.0071 29.7339 41.5603 28.8864 44.2553L29.3808 44.3262C30.5108 42.4114 31.4996 39.4326 33.7597 39.5036C34.9603 43.2624 29.8751 46.7376 29.3808 50.3546C32.2765 49.7872 33.3359 47.5887 36.161 49.3617C35.3841 51.2766 31.0758 53.8298 29.3808 55.461C26.9088 57.6596 22.8124 58.227 23.5893 62.4823C26.6263 65.461 33.1946 65.8865 36.726 68.0851H37.9973C40.6105 62.4114 42.5881 53.4043 45.9782 53.9716C48.2383 54.3262 49.1564 58.5106 50.8515 60.2837C53.1115 62.766 54.0297 63.4752 56.2898 66.4539C56.8548 65.9575 56.9254 67.0922 56.7842 64.9645C56.2191 62.695 55.3716 62.3404 55.301 60.0709C59.1149 59.9291 62.2931 64.8227 66.2482 64.9645C64.4825 63.0496 60.1037 61.7731 59.8918 59.1489C62.4344 59.2199 65.542 61.2057 68.3671 61.7731V60.8511C66.2482 60.1418 61.3749 58.6525 60.9512 56.5248C63.4938 55.7447 65.6832 57.234 68.3671 57.7305V56.8085C67.0251 56.3121 65.7538 55.8865 64.3413 55.461C62.505 54.8936 61.5162 54.8936 60.6687 53.4752C62.7875 51.0638 65.2594 53.1915 67.8727 51.9149C66.1776 51.0638 60.6687 51.0638 57.7729 50.3546C53.8884 49.3617 50.9221 50.3546 47.7439 48.7943C46.4726 42.766 52.7584 39.0071 54.0297 33.9007C47.8851 31.2057 42.5881 29.2908 36.4435 26.2411C28.2507 22.1277 35.3841 21.2057 39.198 17.5177L45.1307 12.4114C42.8 11.4184 41.5993 13.9007 39.2686 14.3262C38.5623 10.8511 42.4468 7.44682 43.1531 3.54611L42.6587 3.1915C41.3874 5.31916 39.9042 8.86526 37.5735 9.36171C37.5735 6.52483 39.5511 3.61703 40.1867 0.780151H39.2686C38.4211 3.12058 37.2204 7.37589 34.8191 8.15604C34.1834 5.67377 35.5253 3.12058 36.0197 0.709229H35.1016C33.1946 6.0993 33.4771 8.01419 31.1464 8.15604C29.7339 5.24824 31.4289 3.26242 30.0164 1.13476C28.8864 4.32625 28.3213 19.1489 26.8382 20.922C22.6712 22.8369 18.4335 18.3688 14.9022 17.0213C12.3596 20.922 4.87307 42.1986 0.706055 47.5887Z" fill="#55AC30"/>
<path id="Vector_7" d="M38.562 7.3759L38.9152 7.16313C40.3984 5.03547 41.1753 2.69504 43.506 2.05675C44.9891 5.31916 39.7627 9.71632 39.6921 13.2624C42.0934 12.1277 42.7291 10.4965 45.6954 11.7021C45.8367 14.2553 41.5284 15.5319 40.0452 17.0922C36.302 20.9929 37.0082 19.5036 33.4062 21.9858C33.4769 24.539 35.1719 24.7518 37.5733 25.8865C39.4096 26.8085 41.2459 27.5887 43.0822 28.5106C45.5542 29.7872 52.0519 32.766 54.5238 32.9787C56.0776 30.1419 65.6829 11.4894 65.1886 8.29788C63.7054 7.44682 62.2928 7.44682 60.5978 6.80852C58.9027 6.24114 57.9846 5.24824 56.4308 4.46809C54.0294 3.1915 49.5799 2.48228 47.7436 0.709229H40.9634L38.562 7.3759Z" fill="#55AC30"/>
<path id="Vector_8" d="M20.8348 38.2979L20.0579 38.7234C19.5636 40.922 19.7754 42.0568 19.5636 44.2553C19.4223 46.2412 18.8573 47.5887 18.5041 49.5036C17.6566 54.0426 20.5523 57.2341 17.3741 59.5745C13.419 60.9929 4.73181 55.0355 0.706055 53.4043V68.0851H34.3247C30.0164 65.1773 19.4223 64.8227 23.3774 58.9362L35.3841 49.5745C31.9233 49.0071 31.9233 51.5603 28.957 50.9929C27.827 47.6596 33.0534 44.3972 33.4065 40.2128C31.2877 41.7022 30.5108 46.4539 27.7563 46.6667C27.5444 43.617 31.1464 39.8582 30.1577 37.2341C28.5332 39.7163 27.8976 44.3972 25.0725 45.3901C24.225 42.6951 26.5557 39.9291 26.3438 36.8795C24.3662 38.9362 24.3662 45.0355 21.6824 45.6029C20.0579 43.8298 20.5523 40.4256 20.8348 38.2979Z" fill="#55AC30"/>
<path id="Vector_9" d="M0.706055 45.8156C2.8955 43.3334 13.7015 18.8653 13.8427 15.9575C9.6051 13.2624 6.07373 8.58159 0.706055 7.30499V45.8156Z" fill="#55AC30"/>
<path id="Vector_10" d="M68.297 37.0213V0.709229H49.6514C51.0639 1.70214 55.3722 3.1915 57.5616 4.32625C59.6098 5.39008 65.26 7.23405 66.0369 7.94327C66.8844 12.5532 56.6435 28.156 55.5134 33.5461L68.297 37.0213Z" fill="#55AC30"/>
<path id="Vector_11" d="M68.297 50.8511V38.0851L55.0897 34.1844C52.9709 37.0922 48.027 44.539 48.3095 48.0851C49.722 48.7943 65.5425 50.6383 68.297 50.8511Z" fill="#55AC30"/>
<path id="Vector_12" d="M0.706055 6.31206C6.56812 8.29788 9.53447 12.3404 14.3371 15.1773C14.3371 15.1773 22.3886 0.709229 22.4593 0.709229H0.706055V6.31206Z" fill="#55AC30"/>
<path id="Vector_13" d="M38.9863 68.0851H68.2967V62.766L61.7283 60.5674C62.7171 61.2766 63.6353 61.9149 64.6947 62.6241C66.6722 63.9007 66.8841 63.617 66.8135 65.5319C64.2003 66.5248 59.0445 61.7021 56.29 60.9929C56.855 63.8298 58.762 64.8936 57.2082 67.6596C55.16 67.305 55.2306 66.0993 53.8887 64.3972C53.3237 63.617 51.558 62.0568 50.8517 61.3475C47.391 58.0851 48.521 54.3263 44.5659 54.9646C42.2352 57.8724 40.8226 64.3263 38.9863 68.0851Z" fill="#55AC30"/>
<path id="Vector_14" d="M29.1691 0.709229H23.3777C21.1176 5.95746 17.3037 9.6454 15.3262 15.8865C17.3037 18.156 23.4483 21.1348 26.344 20.2837C27.1209 19.078 28.6747 3.54611 29.1691 0.709229Z" fill="#55AC30"/>
<path id="Vector_15" d="M34.1125 0.709229H31.2168L31.4287 7.44682C32.8412 6.02838 33.5475 2.76597 34.1125 0.709229Z" fill="#55AC30"/>
<path id="Vector_16" d="M68.2969 55.8156V53.0496L61.7285 53.6879L68.2969 55.8156Z" fill="#55AC30"/>
<g id="Group">
<path id="Vector_17" d="M38.1392 0.709229H36.9386L35.3848 6.17022C36.8679 4.89363 37.5742 2.5532 38.1392 0.709229Z" fill="#55AC30"/>
<path id="Vector_18" d="M68.2969 59.8582V58.7234L62.3643 57.0922C64.7656 58.3688 65.26 59.149 68.2969 59.8582Z" fill="#55AC30"/>
</g>
</g>
</svg>
