<svg width="126" height="52" viewBox="0 0 126 52" fill="none" xmlns="http://www.w3.org/2000/svg">
<g id="logo 1">
<path id="Vector" d="M79.882 21.4955L80.5625 19.6515L81.243 21.4955H79.882ZM81.0336 18.5451H79.9867L78.1022 23.4448H79.1491L79.5679 22.3384H81.5048L81.9236 23.4448H82.9705L81.0336 18.5451ZM76.6888 23.4448V19.3881H78.1545V18.5451H74.2808V19.3881H75.7466V23.4448H76.6888ZM70.2501 19.7042C70.5118 19.4408 70.8259 19.2827 71.2447 19.2827C71.6635 19.2827 71.9776 19.4408 72.2393 19.7042C72.501 19.9676 72.6057 20.3891 72.6057 20.9686C72.6057 21.5482 72.501 21.9696 72.2393 22.2331C71.9776 22.4965 71.6635 22.6545 71.297 22.6545C70.9306 22.6545 70.5642 22.4965 70.3024 22.2331C70.0407 21.9696 69.936 21.5482 69.936 20.9686C69.8313 20.3891 69.9884 19.9676 70.2501 19.7042ZM69.4649 22.8653C69.8837 23.2868 70.4595 23.5502 71.1924 23.5502C71.9252 23.5502 72.501 23.3394 72.9198 22.8653C73.3386 22.4438 73.548 21.8116 73.548 21.0213C73.548 20.231 73.3386 19.5988 72.9198 19.1773C72.501 18.7032 71.9252 18.4924 71.1924 18.4924C70.7736 18.4924 70.4595 18.5451 70.1454 18.7032C69.936 18.8085 69.7266 18.9666 69.5172 19.1247C69.3078 19.3354 69.1508 19.5461 69.0461 19.8096C68.8891 20.1257 68.8367 20.5471 68.8367 21.074C68.8367 21.7589 69.0461 22.3911 69.4649 22.8653ZM64.8583 21.2847H65.8529C66.2194 21.2847 66.5334 21.3374 66.6905 21.4428C66.8475 21.5482 66.9522 21.7062 66.9522 21.917C66.9522 22.075 66.8999 22.1804 66.7952 22.2857C66.6905 22.3911 66.5858 22.4438 66.4811 22.4965C66.3764 22.5492 66.167 22.5492 65.8529 22.5492H64.9107L64.8583 21.2847ZM63.9161 23.4448H66.2194C66.6381 23.4448 66.9522 23.3921 67.1616 23.3394C67.371 23.2868 67.5804 23.076 67.7374 22.8653C67.8945 22.6545 67.9992 22.3384 67.9992 22.0223C67.9992 21.7062 67.8945 21.4428 67.7374 21.1794C67.5804 20.9159 67.371 20.7579 67.1093 20.7052C66.8475 20.5998 66.5858 20.5471 66.2194 20.5471H64.9107V19.3881H67.5804V18.5451H63.9161V23.4448ZM59.9377 21.4955L60.6182 19.6515L61.2987 21.4955H59.9377ZM61.1417 18.5451H60.0947L58.2102 23.4448H59.2572L59.6759 22.3384H61.6128L62.0316 23.4448H63.0785L61.1417 18.5451ZM55.9593 19.3354C56.3257 19.3354 56.5351 19.3354 56.6921 19.3881C56.8492 19.4408 57.0062 19.4934 57.1109 19.5988C57.2156 19.7042 57.268 19.8622 57.268 20.0203C57.268 20.1783 57.2156 20.2837 57.1633 20.3891C57.1109 20.4945 57.0062 20.5998 56.8492 20.6525C56.6921 20.7052 56.4828 20.7052 56.064 20.7052H55.5405V19.3354H55.9593ZM55.4882 23.4448V21.6008H56.1163C56.5874 21.6008 56.9015 21.6008 57.1109 21.5482C57.268 21.4955 57.4773 21.4428 57.6344 21.3374C57.7914 21.232 57.9485 21.074 58.0532 20.8633C58.1579 20.6525 58.2102 20.3891 58.2102 20.1257C58.2102 19.7569 58.1055 19.4408 57.9485 19.1773C57.7391 18.9139 57.5297 18.7559 57.268 18.7032C57.1109 18.6505 56.6921 18.6505 56.1163 18.6505H54.5459V23.5502H55.4882V23.4448Z" fill="#282828"/>
<path id="Vector_2" d="M117.782 11.6433H117.049C116.63 11.6433 116.368 11.6433 116.264 11.5906C116.107 11.5906 116.002 11.4852 115.95 11.3799C115.845 11.2745 115.845 11.1164 115.845 10.9584C115.845 10.8003 115.897 10.6423 116.002 10.5369C116.107 10.4315 116.211 10.3788 116.316 10.3788C116.421 10.3788 116.682 10.3788 117.101 10.3788H117.886V11.6433H117.782ZM118.776 14.4883V9.58857H116.682C116.211 9.58857 115.845 9.64126 115.583 9.69394C115.321 9.74663 115.164 9.90468 115.007 10.1681C114.85 10.3788 114.798 10.6423 114.798 10.9584C114.798 11.3272 114.903 11.5906 115.112 11.854C115.321 12.1174 115.635 12.2755 116.107 12.3282C115.897 12.4336 115.74 12.5916 115.583 12.7497C115.426 12.9077 115.269 13.1711 115.007 13.5399L114.431 14.4883H115.583L116.316 13.4346C116.63 12.9604 116.839 12.697 116.944 12.5916C117.049 12.4862 117.311 12.4336 117.625 12.4336H117.834V14.4883H118.776ZM110.924 12.5389L111.605 10.695L112.285 12.5389H110.924ZM112.128 9.58857H111.081L109.197 14.4883H110.244L110.662 13.3819H112.599L113.018 14.4883H114.065L112.128 9.58857ZM105.48 14.4883V12.3282H107.417V14.4883H108.411V9.58857H107.417V11.5379H105.48V9.58857H104.485V14.4883H105.48ZM100.298 14.4883V12.3282H102.235V14.4883H103.229V9.58857H102.235V11.5379H100.298V9.58857H99.3031V14.4883H100.298ZM94.9059 10.7476C95.1676 10.4842 95.4817 10.3262 95.9005 10.3262C96.3193 10.3262 96.6334 10.4842 96.8951 10.7476C97.1568 11.0111 97.2615 11.4325 97.2615 12.0121C97.2615 12.5916 97.1568 13.0131 96.8951 13.2765C96.6334 13.5399 96.3193 13.698 95.9528 13.698C95.5864 13.698 95.22 13.5399 94.9582 13.2765C94.6965 13.0131 94.5918 12.5916 94.5918 12.0121C94.5395 11.4325 94.6965 11.0111 94.9059 10.7476ZM94.173 13.9087C94.5918 14.3302 95.1676 14.5936 95.9005 14.5936C96.6333 14.5936 97.2092 14.3829 97.6279 13.9087C98.0467 13.4873 98.2561 12.855 98.2561 12.0648C98.2561 11.2745 98.0467 10.6423 97.6279 10.2208C97.2092 9.74663 96.6333 9.53589 95.9005 9.53589C95.4817 9.53589 95.1676 9.58857 94.8535 9.74663C94.6441 9.852 94.4348 10.0101 94.2254 10.1681C94.016 10.3788 93.8589 10.5896 93.7542 10.853C93.5972 11.1691 93.5449 11.5906 93.5449 12.1174C93.5449 12.8024 93.7542 13.4346 94.173 13.9087ZM88.5719 14.4883H89.5665L91.5557 11.2745V14.4883H92.4979V9.58857H91.5033L89.5141 12.855V9.58857H88.5719V14.4883ZM83.3371 14.4883H86.7921V15.542H87.6296V13.6453H87.2108V9.58857H86.2162V13.6453H84.3317V9.58857H83.3371V14.4883ZM78.94 14.4883H79.9345V12.3282C80.0916 12.3282 80.2486 12.3809 80.301 12.4336C80.4057 12.4862 80.5104 12.6443 80.6151 12.9077C80.6674 13.0658 80.7198 13.1185 80.7198 13.1185C80.7721 13.1711 80.7721 13.2238 80.7721 13.2238L81.3479 14.4883H82.4996L81.8191 13.1185C81.662 12.7497 81.505 12.4862 81.3479 12.3282C81.1909 12.1174 81.0338 12.0121 80.8245 11.9594C80.9815 11.854 81.1385 11.7487 81.1909 11.6433C81.2432 11.5379 81.3479 11.3799 81.4003 11.2218C81.505 10.9057 81.6097 10.695 81.662 10.5896C81.7144 10.4842 81.8191 10.4315 81.8714 10.3788C81.9761 10.3262 82.1331 10.3262 82.2902 10.3262H82.4472V9.58857C82.3949 9.58857 82.3425 9.58857 82.2902 9.58857C81.8191 9.58857 81.505 9.64126 81.2956 9.79931C81.0862 9.90468 80.8768 10.2735 80.6674 10.8003C80.5104 11.2218 80.4057 11.4852 80.301 11.5379C80.2486 11.6433 80.0916 11.696 79.8299 11.696V9.58857H78.8353V14.4883H78.94ZM77.7883 14.4883V13.6453H75.0662V12.3282H77.5266V11.4852H75.0662V10.3788H77.6836V9.53589H74.0717V14.4356H77.7883V14.4883ZM70.7214 10.3788C71.0879 10.3788 71.2972 10.3788 71.4543 10.4315C71.6113 10.4842 71.7684 10.5369 71.8731 10.6423C71.9778 10.7476 72.0301 10.9057 72.0301 11.0638C72.0301 11.2218 71.9778 11.3272 71.9254 11.4325C71.8731 11.5379 71.7684 11.6433 71.6113 11.696C71.4543 11.7487 71.2449 11.7487 70.8261 11.7487H70.3026V10.3788H70.7214ZM70.2503 14.4883V12.6443H70.8785C71.3496 12.6443 71.6637 12.6443 71.8731 12.5916C72.0301 12.5389 72.2395 12.4862 72.3965 12.3809C72.5536 12.2755 72.7106 12.1174 72.8153 11.9067C72.92 11.696 72.9724 11.4325 72.9724 11.1691C72.9724 10.8003 72.8677 10.4842 72.7106 10.2208C72.5012 9.95737 72.2918 9.79931 72.0301 9.74663C71.8731 9.69394 71.4543 9.69394 70.8785 9.69394H69.308V14.5936H70.2503V14.4883ZM65.9055 10.3788C66.2719 10.3788 66.4813 10.3788 66.6383 10.4315C66.7954 10.4842 66.9524 10.5369 67.0571 10.6423C67.1618 10.7476 67.2141 10.9057 67.2141 11.0638C67.2141 11.2218 67.1618 11.3272 67.1095 11.4325C67.0571 11.5379 66.9524 11.6433 66.7954 11.696C66.6383 11.7487 66.4289 11.7487 66.0102 11.7487H65.4867V10.3788H65.9055ZM65.4343 14.4883V12.6443H66.0625C66.4813 12.6443 66.8477 12.6443 67.0571 12.5916C67.2142 12.5389 67.4235 12.4862 67.5806 12.3809C67.7376 12.2755 67.8947 12.1174 67.9994 11.9067C68.1041 11.696 68.1564 11.4325 68.1564 11.1691C68.1564 10.8003 68.0517 10.4842 67.8947 10.2208C67.6853 9.95737 67.4759 9.79931 67.2141 9.74663C67.0571 9.69394 66.6383 9.69394 66.0625 9.69394H64.4921V14.5936H65.4343V14.4883ZM60.0949 10.7476C60.3567 10.4842 60.6707 10.3262 61.0895 10.3262C61.5083 10.3262 61.8224 10.4842 62.0841 10.7476C62.3459 11.0111 62.4505 11.4325 62.4505 12.0121C62.4505 12.5916 62.3459 13.0131 62.0841 13.2765C61.8224 13.5399 61.5083 13.698 61.1419 13.698C60.7231 13.698 60.409 13.5399 60.1473 13.2765C59.8855 13.0131 59.7808 12.5916 59.7808 12.0121C59.7285 11.4325 59.8332 11.0111 60.0949 10.7476ZM59.3621 13.9087C59.7808 14.3302 60.3567 14.5936 61.0895 14.5936C61.8224 14.5936 62.3982 14.3829 62.817 13.9087C63.2358 13.4346 63.4451 12.855 63.4451 12.0648C63.4451 11.2745 63.2358 10.6423 62.817 10.2208C62.3982 9.74663 61.8224 9.53589 61.0895 9.53589C60.6707 9.53589 60.3567 9.58857 60.0426 9.74663C59.8332 9.852 59.6238 10.0101 59.4144 10.1681C59.205 10.3788 59.048 10.5896 58.9433 10.853C58.7862 11.1691 58.7339 11.5906 58.7339 12.1174C58.6815 12.8024 58.9433 13.4346 59.3621 13.9087ZM54.4938 14.4883H55.4884V12.3282C55.6454 12.3282 55.8024 12.3809 55.8548 12.4336C55.9595 12.4862 56.0642 12.6443 56.1689 12.9077C56.2212 13.0658 56.2736 13.1185 56.2736 13.1185C56.3259 13.1711 56.3259 13.2238 56.3259 13.2238L56.9017 14.4883H58.0534L57.3729 13.1185C57.2158 12.7497 57.0588 12.4862 56.9017 12.3282C56.7447 12.1701 56.5876 12.0121 56.3783 11.9594C56.5353 11.854 56.6923 11.7487 56.7447 11.6433C56.797 11.5379 56.9017 11.3799 56.9541 11.2218C57.0588 10.9057 57.1635 10.695 57.2158 10.5896C57.2682 10.4842 57.3729 10.4315 57.4252 10.3788C57.5299 10.3262 57.6869 10.3262 57.844 10.3262H58.001V9.58857C57.9487 9.58857 57.8963 9.58857 57.844 9.58857C57.3729 9.58857 57.0588 9.64126 56.8494 9.79931C56.64 9.90468 56.4306 10.2735 56.2212 10.8003C56.0642 11.2218 55.9595 11.4852 55.8548 11.5379C55.8024 11.6433 55.6454 11.696 55.436 11.696V9.58857H54.4414V14.4883H54.4938Z" fill="#282828"/>
<path id="Vector_3" d="M84.907 4.58359H83.9647V5.53192H84.907V4.58359ZM78.9394 5.53192V1.63324L79.8817 5.47924H80.8239L81.7662 1.63324V5.47924H82.6561V0.632225H81.1903L80.3004 3.95137L79.4105 0.632225H77.9448V5.53192H78.9394ZM75.0134 1.31713C75.2751 1.31713 75.4321 1.36981 75.5892 1.47518C75.6939 1.58055 75.7986 1.73861 75.7986 1.94935C75.7986 2.16009 75.6939 2.37083 75.5368 2.4762C75.3798 2.63425 75.1704 2.68694 74.8563 2.68694H74.7516V3.42453H74.961C75.2751 3.42453 75.5368 3.47721 75.6939 3.58258C75.8509 3.68795 75.9556 3.846 75.9556 4.05674C75.9556 4.2148 75.9033 4.37285 75.7462 4.53091C75.5892 4.68896 75.3798 4.74165 75.0657 4.74165C74.8563 4.74165 74.6469 4.68896 74.4899 4.63628C74.3328 4.53091 74.2281 4.37285 74.1234 4.05674L73.2335 4.37285C73.3906 4.84702 73.6 5.16313 73.9141 5.32118C74.2281 5.47924 74.5946 5.58461 75.118 5.58461C75.7462 5.58461 76.2173 5.42655 76.5314 5.16313C76.8455 4.8997 77.0026 4.53091 77.0026 4.10943C77.0026 3.79332 76.8979 3.58258 76.7408 3.37184C76.5838 3.1611 76.322 3.00305 76.0079 2.89768C76.2697 2.73962 76.4791 2.58157 76.5838 2.42351C76.7408 2.21277 76.7932 2.00203 76.7932 1.79129C76.7932 1.47518 76.6361 1.15907 76.3744 0.89565C76.0603 0.632225 75.6415 0.526855 75.0657 0.526855C74.1234 0.526855 73.4953 0.948335 73.2859 1.73861L74.2281 1.94935C74.3328 1.52787 74.5946 1.31713 75.0134 1.31713ZM68.3652 5.53192H69.3598L71.349 2.31814V5.53192H72.2913V0.632225H71.2967L69.3075 3.89869V0.632225H68.3652V5.53192ZM66.0096 5.53192V1.4225H67.4753V0.632225H63.6016V1.47518H65.0674V5.53192H66.0096ZM60.7225 4.10943C60.6178 4.37285 60.5131 4.58359 60.4608 4.63628C60.3561 4.74165 60.1991 4.74165 59.9897 4.74165C59.885 4.74165 59.7279 4.74165 59.6232 4.74165V5.47924C59.7803 5.53192 59.9897 5.53192 60.3038 5.53192C60.6178 5.53192 60.8272 5.42655 61.0366 5.21581C61.246 5.00507 61.403 4.68896 61.5601 4.32017L63.1829 0.57954H62.1359L61.1413 3.1611L59.9897 0.632225H58.8904L60.7225 4.10943ZM55.7495 3.58258L56.4301 1.73861L57.1106 3.58258H55.7495ZM56.9012 0.632225H55.8542L53.9697 5.53192H55.0167L55.4355 4.42554H57.3723L57.7911 5.53192H58.838L56.9012 0.632225Z" fill="#282828"/>
<path id="Vector_4" d="M121.864 48.7335L122.44 47.1002L123.068 48.7335H121.864ZM122.963 46.0465H122.021L120.294 50.5248H121.236L121.602 49.5237H123.382L123.749 50.5248H124.743L122.963 46.0465ZM116.734 50.5248H117.624V48.5754C117.781 48.5754 117.886 48.6281 117.938 48.6808C117.99 48.7335 118.095 48.8915 118.2 49.1023C118.252 49.2076 118.305 49.313 118.305 49.313C118.357 49.3657 118.357 49.3657 118.357 49.4184L118.88 50.5774H119.927L119.299 49.3657C119.142 49.0496 118.985 48.7862 118.88 48.6281C118.776 48.47 118.566 48.3647 118.409 48.2593C118.566 48.1539 118.671 48.0486 118.723 47.9432C118.776 47.8378 118.828 47.7325 118.88 47.5744C118.985 47.311 119.037 47.1002 119.09 46.9949C119.142 46.8895 119.194 46.8368 119.299 46.7841C119.404 46.7314 119.509 46.7314 119.718 46.7314H119.823V46.0465C119.77 46.0465 119.718 46.0465 119.718 46.0465C119.299 46.0465 118.985 46.0992 118.828 46.2046C118.619 46.31 118.462 46.6261 118.252 47.1002C118.095 47.469 117.99 47.7324 117.938 47.7851C117.886 47.8905 117.729 47.9432 117.519 47.9432V46.0465H116.734V50.5248ZM112.023 50.5248H112.913L114.693 47.6271V50.5248H115.53V46.0465H114.64L112.86 48.9969V46.0465H112.023V50.5248ZM109.877 50.5248V46.8368H111.185V46.0992H107.678V46.8368H108.987V50.5248H109.877ZM103.857 50.5248H104.747V48.5754C104.904 48.5754 105.008 48.6281 105.061 48.6808C105.113 48.7335 105.218 48.8915 105.322 49.1023C105.375 49.2076 105.427 49.313 105.427 49.313C105.479 49.3657 105.479 49.3657 105.479 49.4184L106.003 50.5774H107.05L106.422 49.3657C106.265 49.0496 106.108 48.7862 106.003 48.6281C105.898 48.47 105.689 48.3647 105.532 48.2593C105.689 48.1539 105.794 48.0486 105.846 47.9432C105.898 47.8378 105.951 47.7325 106.003 47.5744C106.108 47.311 106.16 47.1002 106.212 46.9949C106.265 46.8895 106.317 46.8368 106.422 46.7841C106.526 46.7314 106.631 46.7314 106.84 46.7314H106.945V46.0465C106.893 46.0465 106.84 46.0465 106.84 46.0465C106.422 46.0465 106.108 46.0992 105.951 46.2046C105.741 46.31 105.584 46.6261 105.375 47.1002C105.218 47.469 105.113 47.7324 105.061 47.7851C105.008 47.8905 104.851 47.9432 104.642 47.9432V46.0465H103.752V50.5248H103.857ZM100.245 48.7335L100.821 47.1002L101.449 48.7335H100.245ZM101.344 46.0465H100.402L98.6743 50.5248H99.6166L99.983 49.5237H101.763L102.129 50.5248H103.124L101.344 46.0465ZM96.6328 46.7841C96.9468 46.7841 97.1562 46.7841 97.2609 46.8368C97.418 46.8368 97.5227 46.9422 97.6274 47.0475C97.7321 47.1529 97.7844 47.311 97.7844 47.469C97.7844 47.6271 97.7321 47.7325 97.6797 47.8378C97.6274 47.9432 97.5227 47.9959 97.418 48.0486C97.3133 48.1012 97.0515 48.1012 96.7375 48.1012H96.2663V46.8368L96.6328 46.7841ZM96.214 50.5248V48.8388H96.7898C97.2086 48.8388 97.5227 48.8388 97.732 48.7861C97.8891 48.7335 98.0461 48.6808 98.2032 48.5754C98.3602 48.47 98.4649 48.312 98.5696 48.1539C98.6743 47.9432 98.7267 47.7324 98.7267 47.469C98.7267 47.1002 98.622 46.8368 98.4649 46.6261C98.3079 46.4153 98.0985 46.2573 97.8367 46.2046C97.6797 46.1519 97.3133 46.1519 96.7898 46.1519H95.2717V50.6301H96.214V50.5248ZM90.6128 50.5248H91.5027V46.8368H93.2302V50.5248H94.1201V46.0465H90.6128V50.5248ZM83.9647 50.5248H84.8546L86.6344 47.6271V50.5248H87.472V46.0465H86.5821L84.8023 48.9969V46.0465H83.9647V50.5248ZM79.934 47.9432H79.2534C78.887 47.9432 78.6253 47.9432 78.5206 47.8905C78.4159 47.8905 78.3112 47.7851 78.2065 47.7324C78.1542 47.6271 78.1018 47.5217 78.1018 47.3637C78.1018 47.2056 78.1542 47.1002 78.2065 46.9949C78.3112 46.8895 78.3635 46.8368 78.5206 46.8368C78.6253 46.8368 78.887 46.8368 79.2011 46.8368H79.8816L79.934 47.9432ZM80.8239 50.5248V46.0465H78.9394C78.5206 46.0465 78.1542 46.0992 77.9448 46.1519C77.7354 46.2046 77.526 46.3626 77.4213 46.5734C77.2642 46.7841 77.2119 47.0475 77.2119 47.311C77.2119 47.6271 77.3166 47.8905 77.4736 48.1012C77.6307 48.312 77.9448 48.47 78.3635 48.5227C78.1542 48.6281 77.9971 48.7335 77.8924 48.8915C77.7877 49.0496 77.5783 49.2603 77.3689 49.6291L76.8455 50.4721H77.8924L78.5206 49.5237C78.7823 49.1023 78.9917 48.8388 79.0964 48.7861C79.2011 48.6808 79.4105 48.6808 79.6722 48.6808H79.8293V50.5248H80.8239ZM72.6053 50.5248H73.4952L75.2751 47.6271V50.5248H76.1126V46.0465H75.2227L73.4429 48.9969V46.0465H72.6053V50.5248ZM69.5692 46.7841C69.8833 46.7841 70.0927 46.7841 70.1974 46.8368C70.3544 46.8368 70.4591 46.9422 70.5638 47.0475C70.6685 47.1529 70.7208 47.311 70.7208 47.469C70.7208 47.6271 70.6685 47.7325 70.6161 47.8378C70.5638 47.9432 70.4591 47.9959 70.3544 48.0486C70.2497 48.1012 69.988 48.1012 69.6739 48.1012H69.2028V46.8368L69.5692 46.7841ZM69.1504 50.5248V48.8388H69.7262C70.145 48.8388 70.4591 48.8388 70.6685 48.7861C70.8255 48.7335 70.9826 48.6808 71.1396 48.5754C71.2967 48.47 71.4014 48.312 71.506 48.1539C71.6107 47.9432 71.6631 47.7324 71.6631 47.469C71.6631 47.1002 71.5584 46.8368 71.4013 46.6261C71.2443 46.4153 71.0349 46.2573 70.7732 46.2046C70.6161 46.1519 70.2497 46.1519 69.7262 46.1519H68.3129V50.6301H69.1504V50.5248ZM64.2821 47.1002C64.4915 46.8368 64.8056 46.7314 65.172 46.7314C65.5384 46.7314 65.8525 46.8368 66.0619 47.1002C66.2713 47.3637 66.376 47.7324 66.376 48.2593C66.376 48.7861 66.2713 49.1549 66.0096 49.4184C65.8002 49.6818 65.4861 49.7872 65.1197 49.7872C64.7532 49.7872 64.4915 49.6818 64.2298 49.4184C64.0204 49.1549 63.8633 48.7861 63.8633 48.2593C63.9157 47.7851 64.0204 47.3637 64.2821 47.1002ZM63.6016 49.9452C63.968 50.3667 64.4915 50.5774 65.172 50.5774C65.8002 50.5774 66.3237 50.3667 66.7424 49.9452C67.1089 49.5237 67.3183 48.9969 67.3183 48.2593C67.3183 47.5217 67.1089 46.9422 66.7424 46.5734C66.376 46.1519 65.8525 45.9412 65.172 45.9412C64.8056 45.9412 64.4915 45.9938 64.2298 46.0992C64.0204 46.2046 63.811 46.31 63.6539 46.5207C63.4969 46.6788 63.3399 46.8895 63.2352 47.1529C63.0781 47.469 63.0258 47.8378 63.0258 48.312C62.9734 48.9969 63.1828 49.5764 63.6016 49.9452ZM62.1882 50.5248V49.7872H59.7279V48.5754H61.9265V47.8378H59.7279V46.8368H62.1359V46.0992H58.838V50.5774L62.1882 50.5248ZM56.6918 50.5248V46.8368H58.0004V46.0992H54.4932V46.8368H55.8018V50.5248H56.6918Z" fill="#282828"/>
<path id="Vector_5" d="M79.3058 35.8257L80.6669 32.0324L82.0802 35.8257H79.3058ZM81.7662 29.6089H79.5676L75.5892 39.8298H77.7878L78.6253 37.5116H82.7084L83.5983 39.8298H85.8492L81.7662 29.6089ZM69.5692 35.4042C70.5115 35.4042 71.0873 35.4569 71.4014 35.5623C71.6631 35.6677 71.8725 35.8257 72.0296 36.0364C72.1866 36.2472 72.2389 36.5106 72.2389 36.8267C72.2389 37.1955 72.1342 37.4589 71.9772 37.7224C71.7678 37.9331 71.5584 38.0912 71.2443 38.1438C71.035 38.1965 70.5638 38.1965 69.831 38.1965H67.9465V35.4569H69.5692V35.4042ZM69.0981 31.2948C70.0404 31.2948 70.6685 31.2948 70.8779 31.3475C71.2443 31.4002 71.4537 31.5055 71.6631 31.7163C71.8202 31.927 71.9249 32.1904 71.9249 32.5066C71.9249 32.8227 71.8202 33.0861 71.6108 33.2968C71.4014 33.5076 71.1396 33.6129 70.7732 33.6656C70.5638 33.6656 70.0927 33.7183 69.2551 33.7183H67.8941V31.3475L69.0981 31.2948ZM65.8526 39.8298H69.3075C70.6162 39.8298 71.4537 39.7771 71.7678 39.7771C72.2913 39.7244 72.7624 39.5663 73.1288 39.3029C73.4953 39.0395 73.8094 38.6707 74.0187 38.2492C74.2281 37.8277 74.3328 37.3536 74.3328 36.8794C74.3328 36.2999 74.1758 35.773 73.8094 35.3515C73.4953 34.9301 73.0242 34.614 72.396 34.4032C72.8148 34.1925 73.1812 33.8764 73.4429 33.5076C73.7047 33.0861 73.8094 32.6646 73.8094 32.1904C73.8094 31.769 73.7047 31.3475 73.4953 30.9787C73.2859 30.6099 73.0242 30.3465 72.7101 30.1357C72.396 29.925 72.0296 29.7669 71.6631 29.7143C71.2443 29.6616 70.6685 29.6089 69.8833 29.6089H65.8002L65.8526 39.8298ZM57.634 35.8257L58.9951 32.0324L60.4084 35.8257H57.634ZM60.1467 29.6089H57.9481L53.9697 39.8298H56.1683L57.0059 37.5116H61.089L61.9789 39.8298H64.2298L60.1467 29.6089Z" fill="#55AC30"/>
<path id="Vector_6" d="M0.523438 35.3516V38.9868C4.03071 40.1986 8.95136 44.0973 12.511 43.8865C14.3955 41.7265 12.511 39.9352 13.2438 36.2999C13.6626 34.1925 13.9244 29.0821 14.7096 27.9757C15.9135 27.923 15.1807 27.7649 15.4424 28.4499C16.5941 28.8713 15.3901 31.5056 16.2276 33.1388C17.641 31.1368 17.3269 26.8693 19.9443 26.922C20.4154 29.2928 19.002 30.2411 19.002 32.7173C19.8396 31.0314 20.8342 27.1854 22.8234 26.9747C23.3992 28.9767 22.0382 30.8734 21.41 32.8754L21.7764 32.9281C22.614 31.5056 23.3469 29.2928 25.022 29.3455C25.9119 32.1378 22.1429 34.7194 21.7764 37.4063C23.9227 36.9848 24.7079 35.3516 26.8018 36.6687C26.226 38.0912 23.0328 39.9878 21.7764 41.1996C19.9443 42.8328 16.9081 43.2543 17.484 46.4154C19.7349 48.6282 24.6032 48.9443 27.2206 50.5775H28.1628C30.0997 46.3627 31.5654 39.6717 34.0781 40.0932C35.7532 40.3566 36.4337 43.465 37.69 44.7822C39.3652 46.6261 40.0457 47.153 41.7208 49.3658C42.1396 48.997 42.1919 49.8399 42.0872 48.2594C41.6684 46.5735 41.0403 46.31 40.9879 44.6241C43.8147 44.5187 46.1703 48.154 49.1018 48.2594C47.7931 46.8369 44.5475 45.8886 44.3905 43.9392C46.275 43.9919 48.5783 45.4671 50.6722 45.8886V45.2037C49.1018 44.6768 45.4898 43.5704 45.1757 41.9899C47.0602 41.4103 48.683 42.5167 50.6722 42.8855V42.2006C49.6776 41.8318 48.7353 41.5157 47.6884 41.1996C46.3273 40.7781 45.5945 40.7781 44.9663 39.7244C46.5367 37.9331 48.3689 39.5137 50.3057 38.5654C49.0494 37.9331 44.9663 37.9331 42.8201 37.4063C39.941 36.6687 37.7424 37.4063 35.3868 36.2472C34.4445 31.769 39.1034 28.9767 40.0457 25.1834C35.4914 23.1814 31.5654 21.7589 27.0112 19.4934C20.9389 16.4377 26.226 15.7528 29.0527 13.0132L33.4499 9.21986C31.7224 8.48228 30.8325 10.3262 29.1051 10.6424C28.5816 8.0608 31.4607 5.53192 31.9842 2.63425L31.6177 2.37083C30.6755 3.95137 29.5762 6.58562 27.8487 6.95441C27.8487 4.84702 29.3145 2.68694 29.7856 0.57954H29.1051C28.4769 2.31814 27.587 5.47924 25.8072 6.05877C25.3361 4.2148 26.3307 2.31814 26.6971 0.526855H26.0166C24.6032 4.53091 24.8126 5.9534 23.0851 6.05877C22.0382 3.89869 23.2945 2.42351 22.2476 0.842965C21.41 3.21379 20.9912 14.2249 19.8919 15.5421C16.8035 16.9645 13.6626 13.6454 11.0452 12.6444C9.16075 15.5421 3.61193 31.3475 0.523438 35.3516Z" fill="#55AC30"/>
<path id="Vector_7" d="M28.5821 5.47924L28.8438 5.32118C29.9431 3.74063 30.5189 2.00203 32.2464 1.52787C33.3457 3.95137 29.472 7.21784 29.4197 9.85208C31.1995 9.00913 31.6706 7.79737 33.8692 8.69302C33.9739 10.5897 30.7807 11.538 29.6814 12.6971C26.907 15.5947 27.4305 14.4884 24.7607 16.3323C24.8131 18.229 26.0694 18.387 27.8492 19.23C29.2103 19.9149 30.5713 20.4944 31.9323 21.1793C33.7645 22.1277 38.5804 24.3404 40.4126 24.4985C41.5642 22.3911 48.6835 8.53496 48.317 6.16414C47.2177 5.53192 46.1708 5.53192 44.9145 5.05776C43.6581 4.63628 42.9776 3.89869 41.826 3.31916C40.0462 2.37083 36.7483 1.84398 35.3872 0.526855H30.3619L28.5821 5.47924Z" fill="#55AC30"/>
<path id="Vector_8" d="M15.4424 28.4499L14.8666 28.766C14.5002 30.3993 14.6572 31.2422 14.5002 32.8755C14.3955 34.3506 13.9767 35.3517 13.715 36.7742C13.0868 40.146 15.233 42.5168 12.8774 44.2554C9.94595 45.3091 3.50723 40.8836 0.523438 39.6718V50.5776H25.4408C22.2476 48.4175 14.3955 48.1541 17.3269 43.7812L26.226 36.8268C23.6609 36.4054 23.6609 38.302 21.4624 37.8805C20.6248 35.4043 24.4985 32.9808 24.7602 29.8724C23.1898 30.9788 22.614 34.5087 20.5725 34.6668C20.4154 32.4013 23.0851 29.609 22.3523 27.6597C21.1483 29.5036 20.6772 32.9808 18.5833 33.7184C17.9551 31.7164 19.6826 29.6617 19.5255 27.3962C18.0598 28.9241 18.0598 33.455 16.0706 33.8765C14.8666 32.5594 15.233 30.0305 15.4424 28.4499Z" fill="#55AC30"/>
<path id="Vector_9" d="M0.523438 34.0344C2.1462 32.1904 10.1553 14.0142 10.26 11.8541C7.1192 9.85205 4.50183 6.37484 0.523438 5.42651V34.0344Z" fill="#55AC30"/>
<path id="Vector_10" d="M50.6195 27.5015V0.526855H36.7998C37.8468 1.26444 41.0399 2.37083 42.6627 3.21379C44.1808 4.00406 48.3686 5.37387 48.9444 5.90072C49.5725 9.32524 41.9822 20.9159 41.1446 24.92L50.6195 27.5015Z" fill="#55AC30"/>
<path id="Vector_11" d="M50.6198 37.775V28.2917L40.8308 25.394C39.2604 27.5541 35.5961 33.086 35.8055 35.7203C36.8524 36.2471 48.5782 37.6169 50.6198 37.775Z" fill="#55AC30"/>
<path id="Vector_12" d="M0.523438 4.68896C4.86827 6.16414 7.06685 9.16718 10.6265 11.2746C10.6265 11.2746 16.5941 0.526855 16.6464 0.526855H0.523438V4.68896Z" fill="#55AC30"/>
<path id="Vector_13" d="M28.8955 50.5774H50.6196V46.626L45.7513 44.9928C46.4842 45.5196 47.1647 45.9938 47.9499 46.5207C49.4157 47.469 49.5727 47.2583 49.5204 48.6807C47.5835 49.4183 43.7621 45.8358 41.7206 45.3089C42.1394 47.4163 43.5528 48.2066 42.4011 50.2613C40.883 49.9979 40.9354 49.1022 39.9408 47.8378C39.522 47.2583 38.2133 46.0992 37.6899 45.5723C35.1248 43.1488 35.9624 40.3565 33.0309 40.8307C31.3035 42.9908 30.2565 47.7851 28.8955 50.5774Z" fill="#55AC30"/>
<path id="Vector_14" d="M21.6195 0.526855H17.327C15.6519 4.42554 12.8251 7.16515 11.3594 11.8014C12.8251 13.4873 17.3793 15.7001 19.5256 15.0679C20.1014 14.1722 21.253 2.63425 21.6195 0.526855Z" fill="#55AC30"/>
<path id="Vector_15" d="M25.2839 0.526855H23.1377L23.2947 5.53192C24.3417 4.47822 24.8652 2.05472 25.2839 0.526855Z" fill="#55AC30"/>
<path id="Vector_16" d="M50.6203 41.4629V39.4082L45.752 39.8824L50.6203 41.4629Z" fill="#55AC30"/>
<g id="Group">
<path id="Vector_17" d="M28.2671 0.526855H27.3772L26.2256 4.58359C27.3249 3.63527 27.8484 1.89666 28.2671 0.526855Z" fill="#55AC30"/>
<path id="Vector_18" d="M50.6198 44.4661V43.6231L46.2227 42.4114C48.0025 43.3597 48.3689 43.9392 50.6198 44.4661Z" fill="#55AC30"/>
</g>
</g>
</svg>
